# xmcd CD database file
#
# Track frame offsets:
#	150
#	22052
#	38942
#	55817
#
# Disc length: 961 seconds
#
# Revision: 0
# Processed by: cddbd v1.5PL3 Copyright (c) Steve Scherf et al.
# Submitted via: CDex 1.50
#
DISCID=2f03bf04
DTITLE=Los Tres Amigos - Macarena
DYEAR=1995
DGENRE=Salsa
TTITLE0=Macarena club mix
TTITLE1=Macarena dub
TTITLE2=Macarena - Los Tres Amigos version
TTITLE3=Ritmo del sol
EXTD=YEAR: 1995
EXTT0=
EXTT1=
EXTT2=
EXTT3=
PLAYORDER=
